
<svg xmlns="http://www.w3.org/2000/svg" xml:space="preserve" width="1812px" height="433px" version="1.1" style="shape-rendering:geometricPrecision; text-rendering:geometricPrecision; image-rendering:optimizeQuality; fill-rule:evenodd; clip-rule:evenodd"
     viewBox="0 0 1810.32 432.68">
 <defs>
  <style type="text/css">
   <![CDATA[
    .fil2 {fill:#E32029}
    .fil3 {fill:#2D3DA2}
    .fil4 {fill:#9B9482;fill-rule:nonzero}
    .fil0 {fill:#2D4278;fill-rule:nonzero}
    .fil1 {fill:#2D3DA2;fill-rule:nonzero}
   ]]>
  </style>
 </defs>
    <g id="Слой_x0020_1">
  <metadata id="CorelCorpID_0Corel-Layer"/>
        <path class="fil0" d="M1764.26 167.3c1.24,2.99 2.94,5.49 5.11,7.51 2.17,2.02 4.7,3.55 7.59,4.61 2.89,1.05 6.03,1.58 9.4,1.58 3.26,0 6.33,-0.53 9.22,-1.58 2.9,-1.06 5.44,-2.59 7.64,-4.61 2.2,-2.02 3.93,-4.52 5.2,-7.51 1.26,-2.98 1.9,-6.4 1.9,-10.26 0,-3.85 -0.62,-7.27 -1.86,-10.25 -1.23,-2.99 -2.93,-5.49 -5.1,-7.51 -2.17,-2.02 -4.72,-3.55 -7.64,-4.61 -2.93,-1.05 -6.05,-1.58 -9.36,-1.58 -3.25,0 -6.32,0.53 -9.22,1.58 -2.89,1.06 -5.44,2.59 -7.64,4.61 -2.2,2.02 -3.93,4.52 -5.19,7.51 -1.27,2.98 -1.9,6.4 -1.9,10.25 0,3.86 0.61,7.28 1.85,10.26zm5.2 -18.44c0.9,-2.32 2.16,-4.24 3.79,-5.78 1.63,-1.54 3.56,-2.7 5.79,-3.48 2.23,-0.78 4.67,-1.18 7.32,-1.18 2.53,0 4.9,0.4 7.1,1.18 2.2,0.78 4.12,1.94 5.78,3.48 1.66,1.54 2.97,3.46 3.93,5.78 0.97,2.32 1.45,5.05 1.45,8.18 0,3.2 -0.46,5.95 -1.4,8.27 -0.93,2.33 -2.22,4.26 -3.84,5.79 -1.63,1.54 -3.56,2.68 -5.79,3.44 -2.23,0.75 -4.64,1.12 -7.23,1.12 -2.47,0 -4.82,-0.39 -7.05,-1.17 -2.23,-0.78 -4.18,-1.94 -5.83,-3.48 -1.66,-1.54 -2.97,-3.46 -3.93,-5.78 -0.97,-2.32 -1.45,-5.05 -1.45,-8.19 0,-3.13 0.45,-5.86 1.36,-8.18zm7.59 19.85l4.7 0 0 -10.76 4.34 1.36 6.51 9.4 5.51 0 -6.69 -9.86 -2.53 -1.26c1.81,-0.12 3.33,-0.7 4.57,-1.72 1.23,-1.02 1.85,-2.5 1.85,-4.43 0,-2.59 -0.9,-4.41 -2.71,-5.47 -1.81,-1.05 -3.98,-1.58 -6.51,-1.58 -1.57,0 -3.22,0.08 -4.97,0.23 -1.75,0.15 -3.11,0.37 -4.07,0.67l0 23.42zm13.29 -17.09c0,1.33 -0.48,2.26 -1.45,2.8 -0.96,0.54 -2.32,0.82 -4.07,0.82l-3.07 0 0 -6.42c0.36,-0.18 0.85,-0.29 1.45,-0.32 0.6,-0.03 1.23,-0.04 1.89,-0.04 3.5,0 5.25,1.05 5.25,3.16z"/>
        <path class="fil1" d="M682.04 266.68c-3.62,13.35 -9.72,23.4 -17.8,29.99 -8.08,6.58 -16.8,11.2 -26.04,13.67 -5.43,1.49 -11.04,2.64 -16.14,2.97 -5.26,0.49 -10.22,0.65 -14.66,0.65l-2.79 0.34c-23.41,-0.17 -42.02,-6.59 -56.03,-19.44 -13.84,-12.86 -20.76,-32.62 -20.76,-59.31 0,-23.08 7.09,-42.02 20.92,-56.52 14.01,-14.5 33.94,-21.75 59.31,-21.75l2.81 0c21.25,0 37.24,4.95 47.28,14.83 10.21,9.89 17.46,20.92 21.25,32.79 2.14,6.09 3.46,12.19 4.13,18.12 0.65,5.77 1.15,11.04 1.31,15.49l0.33 8.08 -110.22 0c0,1.15 0.16,2.63 0.16,3.95 0,1.32 0.33,2.8 0.67,4.28 1.16,7.25 4.27,14.17 9.22,20.27 4.93,6.25 12.69,9.55 23.06,10.04 6.6,-0.49 12.54,-2.3 17.47,-5.27 4.94,-3.14 8.41,-7.57 10.04,-13.18l2.98 0 43.5 0zm-44.33 -44.65c-0.16,-10.22 -2.15,-17.62 -5.6,-22.4 -3.31,-4.94 -7.25,-8.41 -11.37,-10.38 -2.14,-0.83 -4.29,-1.65 -6.41,-1.81 -1.99,-0.5 -3.97,-0.66 -5.45,-0.66 -9.05,0.32 -15.98,2.79 -20.6,7.08 -4.61,4.29 -8.07,9.39 -10.04,14.67 -0.99,2.3 -1.82,4.78 -2.31,7.07 -0.34,2.31 -0.83,4.62 -0.99,6.59l62.77 -0.16z"/>
        <polygon class="fil1" points="1635.54,279.49 1635.44,162.73 1681.59,207.76 1681.18,207.45 1681.18,279.49 1724.86,279.49 1724.86,162.73 1725.37,162.42 1771.03,207.76 1770.3,207.45 1770.3,308.78 1767.71,308.78 1546,308.78 1546,162.73 1546.43,162.73 1592.47,207.76 1591.76,207.86 1591.76,279.49 "/>
        <polygon class="fil1" points="741.21,308.76 738.23,308.76 695.4,308.76 695.4,162.79 698.2,162.79 838.91,162.79 838.91,308.76 835.95,308.76 793.11,308.76 793.11,192.11 741.04,192.11 "/>
        <path class="fil1" d="M849.16 309.5l0 -30.32 2.79 0c0.99,0.33 2.15,0.49 3.3,0.67 0.99,0.16 1.99,0.32 2.8,0.32 10.87,-0.66 17.47,-6.26 19.78,-16.64 2.13,-10.55 3.61,-23.4 4.11,-38.39l1.31 -62.28 2.8 0 121.92 0 0 145.97 -2.79 0 -42.83 0 0 -116.64 -35.27 0 -0.65 32.79c0,1.31 -0.17,2.79 -0.17,4.11 0,1.33 -0.16,2.8 -0.16,4.12 -0.51,19.61 -3.97,37.56 -10.06,53.71 -6.1,16.15 -20.76,24.39 -43.98,24.39l-2.98 0.16c-2.95,-0.16 -6.09,-0.49 -9.37,-0.66 -3.31,-0.33 -6.93,-0.99 -10.55,-1.64l0 0.33z"/>
        <path class="fil1" d="M1096.52 314.26c-19.94,-0.17 -38.06,-6.27 -54.21,-17.96 -15.97,-11.55 -24.05,-31.97 -24.05,-60.96 0,-26.53 7.41,-46.3 22.07,-58.99 14.68,-12.85 33.45,-19.28 56.03,-19.28l2.96 0c24.38,0 43.68,6.93 57.51,20.76 13.83,13.84 20.75,33.13 20.75,57.51 0,24.87 -6.92,44.31 -20.75,57.83 -13.83,13.67 -33.13,20.59 -57.51,20.59l-2.96 0.33 0.16 0.17zm1.48 -29.51c11.7,-0.32 19.95,-4.6 24.22,-12.67 4.46,-8.08 7.09,-17.14 7.76,-26.86 0,-1.64 0.16,-3.47 0.16,-5.11 0.16,-1.64 0.16,-3.29 0.16,-4.77 0,-16.65 -2.47,-28.34 -7.25,-35.11 -4.94,-6.59 -10.39,-10.87 -16.32,-12.51 -1.48,-0.5 -3.12,-0.82 -4.6,-0.82 -1.48,-0.33 -2.97,-0.33 -4.29,-0.33 -9.56,0.16 -16.65,3.12 -21.08,8.89 -4.46,5.6 -7.75,12.03 -9.4,18.95 -0.83,3.79 -1.31,7.58 -1.66,11.37 -0.16,3.62 -0.32,6.92 -0.32,9.56 0,2.8 0,5.93 0.32,9.55 0.19,3.63 0.83,7.41 1.66,11.2 1.48,7.09 4.62,13.52 9.06,19.28 4.45,5.93 11.7,9.06 21.42,9.56l0.16 -0.18z"/>
        <polygon class="fil1" points="1230.45,215.45 1230.45,215.78 1230.45,308.87 1227.48,308.87 1184.65,308.87 1184.65,162.89 1187.44,162.89 1244.45,162.89 1282.19,262.07 1319.75,162.89 1322.71,162.89 1379.39,162.89 1379.39,308.87 1376.75,308.87 1333.93,308.87 1333.93,215.78 1333.93,215.45 1297.68,308.87 1294.71,308.87 1266.38,308.87 "/>
        <path class="fil1" d="M1394.03 209.6c0,-1.15 0,-2.63 0.32,-4.12 0.17,-1.49 0.33,-2.97 0.51,-4.29 1.96,-11.2 7.57,-21.25 16.97,-30.48 9.54,-9.05 26.02,-13.67 49.41,-13.67l2.97 0c20.09,0 34.77,3.13 43.66,9.23 8.91,6.09 15,13.02 18.12,20.26 1.66,3.95 2.8,7.91 3.14,11.53 0.33,3.79 0.49,7.09 0.49,9.89l0 1.98 0 1.81 -0.49 66.73 0 3.46 0 3.13c0,5.6 0.49,10.21 1.48,14 0.99,3.62 3.3,6.1 6.74,6.93l0 2.63 -2.79 0 -45.14 0 -3.14 -12.69c-2.63,3.13 -5.59,5.76 -8.56,7.75 -3.12,1.97 -6.26,3.78 -9.23,4.94 -6.1,2.47 -12.03,4.12 -17.46,4.44 -5.45,0.5 -9.07,0.66 -11.04,0.66l-2.79 0.34c-15.65,-0.17 -26.87,-2.97 -33.8,-8.57 -7.07,-5.61 -11.68,-12.03 -13.99,-18.95 -0.67,-2.63 -1.31,-5.27 -1.48,-7.74 -0.34,-2.48 -0.66,-4.78 -0.66,-6.92 0,-16.48 5.77,-27.85 17.13,-34.11 11.37,-6.09 26.52,-10.54 44.99,-12.85 3.46,-0.17 6.42,-0.66 8.89,-0.82 2.79,-0.34 5.26,-0.83 7.25,-0.99 7.25,-0.99 12.19,-2.3 14.66,-3.95 2.47,-1.65 3.95,-4.78 4.11,-9.4l0 -0.99 0 -0.98 0 -1 0 -0.98c0,-0.83 -0.16,-2.14 -0.33,-3.8 -0.16,-1.64 -0.8,-3.78 -1.96,-5.75 -1.15,-2.31 -3.3,-4.46 -6.25,-6.44 -3.14,-1.97 -7.6,-3.12 -13.37,-3.29 -1.32,0 -2.96,0.17 -4.94,0.33 -1.81,0.32 -3.79,0.82 -5.94,1.65 -3.43,1.15 -6.57,3.29 -9.55,6.59 -2.8,3.13 -4.28,8.23 -4.28,14.66l-2.79 0 -40.86 -0.16zm90.61 30.64c-2.31,0.82 -4.29,1.66 -5.77,2.31 -1.31,0.49 -2.63,1.15 -3.78,1.32 -0.83,0.33 -1.48,0.49 -2.15,0.49 -0.67,0.17 -1.32,0.33 -1.8,0.49 -1.66,0.17 -3.3,0.5 -5.13,0.66 -1.8,0.33 -4.11,0.82 -7.06,1.33 -1.18,0.16 -2.98,0.49 -4.78,0.82 -1.98,0.49 -4.13,0.99 -6.09,1.81 -3.63,1.32 -6.93,3.46 -9.73,6.1 -2.97,2.8 -4.45,6.91 -4.45,12.35 0,5.27 1.8,9.23 5.26,11.7 3.63,2.47 7.57,4.11 11.71,4.94l1.8 0c0.51,0.18 1.16,0.34 1.82,0.34 1.64,-0.34 3.63,-0.66 5.93,-1.17 2.32,-0.66 4.62,-1.64 7.1,-2.95 4.27,-2.31 8.05,-5.94 11.68,-11.04 3.46,-5.11 5.28,-12.36 5.28,-21.42l0.16 -8.08z"/>
        <polygon class="fil1" points="406.62,139.14 406.62,100.12 409.52,100.12 575.12,100.12 575.12,139.24 515.81,139.24 515.81,301.34 515.5,301.34 466.44,250 466.44,250.41 466.44,139.24 "/>
        <polygon class="fil2" points="76.55,249.93 25.52,249.93 25.52,96.73 0,96.73 25.52,48.37 51.03,0 76.55,48.37 102.06,96.73 76.55,96.73 "/>
        <polygon class="fil3" points="127.58,96.73 76.55,96.73 76.55,249.93 51.03,249.93 76.55,298.3 102.06,346.66 127.58,298.3 153.09,249.93 127.58,249.93 "/>
        <polygon class="fil2" points="178.61,249.93 127.58,249.93 127.58,96.73 102.06,96.73 127.58,48.37 153.09,0 178.61,48.37 204.12,96.73 178.61,96.73 "/>
        <polygon class="fil3" points="229.64,96.73 178.61,96.73 178.61,249.93 153.09,249.93 178.61,298.3 204.12,346.66 229.64,298.3 255.16,249.93 229.64,249.93 "/>
        <polygon class="fil2" points="280.67,249.93 229.64,249.93 229.64,96.73 204.12,96.73 229.64,48.37 255.16,0 280.67,48.37 306.19,96.73 280.67,96.73 "/>
        <polygon class="fil3" points="331.7,96.73 280.67,96.73 280.67,249.93 255.16,249.93 280.67,298.3 306.19,346.66 331.7,298.3 357.22,249.93 331.7,249.93 "/>
        <polygon class="fil4" points="689.6,411.7 673.19,359.88 686.57,359.88 696.32,393.84 705.2,359.88 718.48,359.88 727.07,393.84 736.93,359.88 750.48,359.88 733.9,411.7 720.62,411.7 711.75,378.42 702.97,411.7 "/>
        <path id="1" class="fil4" d="M767.66 375.69l-12.4 -2.25c1.44,-5.01 3.84,-8.71 7.22,-11.13 3.39,-2.39 8.46,-3.61 15.23,-3.61 6.12,0 10.66,0.72 13.66,2.15 3,1.43 5.1,3.28 6.35,5.51 1.23,2.25 1.85,6.33 1.85,12.26l-0.2 16.09c0,4.56 0.21,7.91 0.63,10.06 0.43,2.15 1.26,4.46 2.5,6.93l-13.58 0c-0.31,-0.92 -0.75,-2.29 -1.26,-4.1 -0.2,-0.79 -0.35,-1.3 -0.49,-1.57 -2.34,2.28 -4.86,3.98 -7.56,5.13 -2.69,1.13 -5.54,1.7 -8.54,1.7 -5.33,0 -9.53,-1.45 -12.59,-4.33 -3.05,-2.9 -4.58,-6.56 -4.58,-10.99 0,-2.92 0.7,-5.53 2.1,-7.8 1.4,-2.28 3.34,-4.04 5.84,-5.28 2.52,-1.23 6.15,-2.29 10.9,-3.21 6.36,-1.16 10.82,-2.28 13.35,-3.31l0 -1.37c0,-2.68 -0.65,-4.56 -1.95,-5.66 -1.3,-1.12 -3.76,-1.67 -7.41,-1.67 -2.46,0 -4.4,0.47 -5.76,1.42 -1.37,0.95 -2.46,2.61 -3.31,5.03zm18.43 11.12c-1.75,0.59 -4.54,1.29 -8.39,2.1 -3.83,0.82 -6.3,1.6 -7.41,2.38 -1.82,1.25 -2.73,2.84 -2.73,4.78 0,1.97 0.71,3.63 2.14,5.03 1.44,1.4 3.25,2.1 5.47,2.1 2.48,0 4.84,-0.81 7.12,-2.43 1.69,-1.25 2.77,-2.76 3.22,-4.6 0.33,-1.16 0.53,-3.38 0.58,-6.63l0 -2.73z"/>
        <path id="2" class="fil4" d="M826.01 411.7l-13.67 0 0 -51.82 12.69 0 0 7.31c2.21,-3.44 4.18,-5.72 5.91,-6.82 1.72,-1.1 3.68,-1.67 5.9,-1.67 3.13,0 6.14,0.88 9.07,2.65l-4.29 11.89c-2.33,-1.48 -4.48,-2.23 -6.43,-2.23 -1.97,0 -3.6,0.53 -4.93,1.6 -1.33,1.08 -2.38,3 -3.13,5.76 -0.75,2.76 -1.12,8.54 -1.12,17.32l0 16.01z"/>
        <path id="3" class="fil4" d="M881.62 395.21l13.67 2.33c-1.76,5.01 -4.53,8.83 -8.29,11.42 -3.78,2.6 -8.53,3.9 -14.26,3.9 -8.97,0 -15.63,-2.95 -20,-8.88 -3.38,-4.74 -5.08,-10.67 -5.08,-17.75 0,-8.59 2.25,-15.32 6.75,-20.2 4.48,-4.88 10.14,-7.33 16.97,-7.33 7.74,0 13.82,2.55 18.25,7.61 4.3,4.88 6.41,12.69 6.35,23.43l-34.36 0c0.07,4.03 1.18,7.18 3.33,9.46 2.13,2.29 4.81,3.42 7.99,3.42 2.15,0 3.95,-0.58 5.42,-1.75 1.46,-1.18 2.54,-3.06 3.26,-5.66zm0.78 -13.86c-0.06,-3.98 -1.06,-6.98 -3.01,-9.03 -1.97,-2.04 -4.33,-3.08 -7.13,-3.08 -3,0 -5.46,1.09 -7.41,3.23 -1.96,2.14 -2.93,5.1 -2.93,8.88l20.48 0z"/>
        <path id="4" class="fil4" d="M920.66 340.17l0 26.24c4.43,-5.19 9.73,-7.78 15.9,-7.71 3.14,0 5.98,0.58 8.55,1.77 2.56,1.16 4.48,2.66 5.76,4.48 1.27,1.83 2.12,3.84 2.58,6.06 0.45,2.2 0.68,5.64 0.68,10.34l0 30.35 -13.65 0 0 -27.43c0,-5.47 -0.27,-8.92 -0.78,-10.35 -0.54,-1.43 -1.45,-2.56 -2.79,-3.41 -1.33,-0.83 -2.98,-1.27 -4.93,-1.27 -2.28,0 -4.31,0.55 -6.09,1.67 -1.8,1.1 -3.12,2.76 -3.97,4.98 -0.84,2.2 -1.26,5.49 -1.26,9.84l0 25.97 -13.66 0 0 -71.53 13.66 0z"/>
        <path id="5" class="fil4" d="M964.66 385.05c0,-4.55 1.13,-8.96 3.36,-13.23 2.25,-4.24 5.45,-7.51 9.58,-9.75 4.13,-2.24 8.69,-3.37 13.71,-3.37 7.87,0 14.3,2.57 19.32,7.66 5.01,5.12 7.51,11.54 7.51,19.27 0,7.88 -2.53,14.39 -7.61,19.52 -5.07,5.15 -11.45,7.71 -19.12,7.71 -4.75,0 -9.28,-1.06 -13.58,-3.21 -4.29,-2.15 -7.56,-5.3 -9.81,-9.46 -2.23,-4.17 -3.36,-9.21 -3.36,-15.14zm14.06 0.78c0,5.15 1.21,9.08 3.66,11.81 2.43,2.73 5.45,4.1 9.03,4.1 3.58,0 6.56,-1.37 8.97,-4.1 2.4,-2.73 3.62,-6.7 3.62,-11.91 0,-5.06 -1.22,-8.98 -3.62,-11.71 -2.41,-2.73 -5.39,-4.09 -8.97,-4.09 -3.58,0 -6.6,1.36 -9.03,4.09 -2.45,2.73 -3.66,6.68 -3.66,11.81z"/>
        <path id="6" class="fil4" d="M1062.74 411.7l0 -7.82c-1.9,2.8 -4.38,5 -7.48,6.6 -3.08,1.58 -6.33,2.38 -9.71,2.38 -3.45,0 -6.54,-0.76 -9.31,-2.28 -2.76,-1.53 -4.76,-3.68 -6.01,-6.45 -1.23,-2.76 -1.85,-6.59 -1.85,-11.47l0 -32.78 13.66 0 0 23.8c0,7.3 0.25,11.74 0.73,13.38 0.5,1.63 1.4,2.93 2.73,3.89 1.33,0.99 3.05,1.47 5.13,1.47 2.35,0 4.45,-0.63 6.3,-1.9 1.84,-1.27 3.11,-2.86 3.79,-4.78 0.69,-1.91 1.04,-6.6 1.04,-14.01l0 -21.85 13.75 0 0 51.82 -12.77 0z"/>
        <path id="7" class="fil4" d="M1084.59 396.86l13.75 -2.05c0.59,2.66 1.77,4.71 3.57,6.11 1.78,1.38 4.31,2.08 7.56,2.08 3.51,0 6.15,-0.68 7.89,-2.05 1.19,-0.9 1.8,-2.11 1.87,-3.59 0,-1.05 -0.33,-1.9 -0.98,-2.55 -0.65,-0.72 -2.18,-1.37 -4.58,-1.95 -11.06,-2.47 -18.09,-4.65 -21.09,-6.53 -4.09,-2.8 -6.14,-6.71 -6.14,-11.72 0,-4.48 1.78,-8.26 5.36,-11.31 3.58,-3.07 9.08,-4.6 16.5,-4.6 7.08,0 12.36,1.17 15.81,3.46 3.45,2.32 5.81,5.75 7.11,10.31l-12.87 2.34c-0.52,-2.02 -1.59,-3.57 -3.17,-4.63 -1.6,-1.09 -3.83,-1.62 -6.69,-1.62 -3.58,0 -6.15,0.48 -7.71,1.47 -1.04,0.71 -1.55,1.66 -1.55,2.83 0,0.98 0.45,1.78 1.36,2.43 1.24,0.91 5.5,2.21 12.78,3.91 7.29,1.68 12.39,3.73 15.32,6.15 2.86,2.46 4.3,5.86 4.3,10.14 0,4.75 -1.99,8.84 -5.97,12.26 -3.96,3.41 -9.81,5.11 -17.55,5.11 -7.09,0 -12.71,-1.43 -16.84,-4.3 -4.13,-2.84 -6.81,-6.76 -8.04,-11.7z"/>
        <path id="8" class="fil4" d="M1174.84 395.21l13.67 2.33c-1.76,5.01 -4.53,8.83 -8.29,11.42 -3.78,2.6 -8.53,3.9 -14.26,3.9 -8.97,0 -15.64,-2.95 -20,-8.88 -3.38,-4.74 -5.08,-10.67 -5.08,-17.75 0,-8.59 2.25,-15.32 6.74,-20.2 4.48,-4.88 10.15,-7.33 16.98,-7.33 7.74,0 13.82,2.55 18.25,7.61 4.3,4.88 6.41,12.69 6.34,23.43l-34.35 0c0.06,4.03 1.18,7.18 3.33,9.46 2.13,2.29 4.81,3.42 7.99,3.42 2.15,0 3.95,-0.58 5.41,-1.75 1.47,-1.18 2.55,-3.06 3.27,-5.66zm0.78 -13.86c-0.07,-3.98 -1.06,-6.98 -3.01,-9.03 -1.97,-2.04 -4.33,-3.08 -7.13,-3.08 -3,0 -5.46,1.09 -7.41,3.23 -1.97,2.14 -2.93,5.1 -2.93,8.88l20.48 0z"/>
        <path id="9" class="fil4" d="M1226.75 359.88l12.69 0 0 7.02c4.55,-5.53 9.93,-8.27 16.11,-8.2 3.31,0 6.19,0.68 8.62,2.05 2.45,1.37 4.45,3.41 6.02,6.15 2.26,-2.79 4.73,-4.85 7.36,-6.2 2.63,-1.33 5.44,-2 8.44,-2 3.76,0 6.99,0.77 9.66,2.3 2.66,1.53 4.61,3.8 5.85,6.78 0.91,2.21 1.39,5.79 1.46,10.74l0 33.18 -13.76 -12.6 0 -16.97c0,-5.28 -0.45,-8.62 -1.36,-10.05 -1.23,-1.95 -3.18,-2.9 -5.85,-2.84 -1.96,0 -3.76,0.59 -5.43,1.77 -1.64,1.16 -2.86,2.86 -3.64,5.11 -0.79,2.25 -1.19,5.81 -1.19,10.69l0 24.89 -13.65 -12.6 0 -15.8c0,-5.15 -0.24,-8.39 -0.68,-9.76 -0.45,-1.5 -1.2,-2.58 -2.25,-3.26 -1.04,-0.69 -2.47,-1.04 -4.3,-1.04 -2.13,0 -4.05,0.57 -5.7,1.72 -1.66,1.13 -2.84,2.76 -3.56,4.88 -0.72,2.11 -1.08,5.66 -1.08,10.67l0 25.19 -13.76 -12.6 0 -39.22z"/>
        <path id="10" class="fil4" d="M1326.68 375.69l-12.39 -2.25c1.43,-5.01 3.83,-8.71 7.21,-11.13 3.39,-2.39 8.46,-3.61 15.24,-3.61 6.11,0 10.65,0.72 13.65,2.15 3,1.43 5.1,3.28 6.35,5.51 1.23,2.25 1.85,6.33 1.85,12.26l-0.2 16.09c0,4.56 0.21,7.91 0.63,10.06 0.43,2.15 1.26,4.46 2.5,6.93l-13.58 0c-0.31,-0.92 -0.75,-2.29 -1.26,-4.1 -0.2,-0.79 -0.35,-1.3 -0.48,-1.57 -2.35,2.28 -4.87,3.98 -7.57,5.13 -2.69,1.13 -5.54,1.7 -8.54,1.7 -5.33,0 -9.53,-1.45 -12.59,-4.33 -3.05,-2.9 -4.58,-6.56 -4.58,-10.99 0,-2.92 0.7,-5.53 2.1,-7.8 1.4,-2.28 3.35,-4.04 5.84,-5.28 2.52,-1.23 6.15,-2.29 10.9,-3.21 6.36,-1.16 10.82,-2.28 13.35,-3.31l0 -1.37c0,-2.68 -0.65,-4.56 -1.95,-5.66 -1.3,-1.12 -3.76,-1.67 -7.41,-1.67 -2.46,0 -4.39,0.47 -5.76,1.42 -1.36,0.95 -2.46,2.61 -3.31,5.03zm18.43 11.12c-1.75,0.59 -4.54,1.29 -8.39,2.1 -3.83,0.82 -6.3,1.6 -7.41,2.38 -1.82,1.25 -2.73,2.84 -2.73,4.78 0,1.97 0.71,3.63 2.15,5.03 1.43,1.4 3.24,2.1 5.46,2.1 2.48,0 4.84,-0.81 7.13,-2.43 1.68,-1.25 2.76,-2.76 3.21,-4.6 0.33,-1.16 0.53,-3.38 0.58,-6.63l0 -2.73z"/>
        <path id="11" class="fil4" d="M1418.99 411.7l-13.66 0 0 -26.45c0,-5.6 -0.29,-9.23 -0.88,-10.88 -0.58,-1.66 -1.55,-2.93 -2.88,-3.81 -1.33,-0.88 -2.91,-1.32 -4.73,-1.32 -2.41,0 -4.56,0.65 -6.44,1.95 -1.89,1.3 -3.17,3.02 -3.85,5.13 -0.68,2.12 -1.03,6.06 -1.03,11.86l0 23.52 -13.66 0 0 -51.82 12.69 0 0 7.61c4.55,-5.86 10.24,-8.79 17.07,-8.79 3,0 5.76,0.55 8.3,1.62 2.53,1.06 4.44,2.44 5.71,4.14 1.26,1.7 2.15,3.63 2.63,5.82 0.48,2.18 0.73,5.24 0.73,9.21l0 32.21z"/>
        <path id="12" class="fil4" d="M1442.89 375.69l-12.39 -2.25c1.43,-5.01 3.83,-8.71 7.21,-11.13 3.4,-2.39 8.46,-3.61 15.24,-3.61 6.11,0 10.66,0.72 13.66,2.15 2.99,1.43 5.09,3.28 6.34,5.51 1.23,2.25 1.85,6.33 1.85,12.26l-0.2 16.09c0,4.56 0.22,7.91 0.63,10.06 0.44,2.15 1.27,4.46 2.5,6.93l-13.57 0c-0.32,-0.92 -0.75,-2.29 -1.27,-4.1 -0.2,-0.79 -0.35,-1.3 -0.48,-1.57 -2.35,2.28 -4.86,3.98 -7.56,5.13 -2.7,1.13 -5.55,1.7 -8.54,1.7 -5.33,0 -9.53,-1.45 -12.6,-4.33 -3.04,-2.9 -4.58,-6.56 -4.58,-10.99 0,-2.92 0.7,-5.53 2.1,-7.8 1.4,-2.28 3.35,-4.04 5.85,-5.28 2.51,-1.23 6.14,-2.29 10.89,-3.21 6.36,-1.16 10.83,-2.28 13.36,-3.31l0 -1.37c0,-2.68 -0.65,-4.56 -1.95,-5.66 -1.3,-1.12 -3.77,-1.67 -7.41,-1.67 -2.47,0 -4.4,0.47 -5.77,1.42 -1.36,0.95 -2.46,2.61 -3.31,5.03zm18.44 11.12c-1.75,0.59 -4.55,1.29 -8.4,2.1 -3.83,0.82 -6.29,1.6 -7.41,2.38 -1.81,1.25 -2.73,2.84 -2.73,4.78 0,1.97 0.72,3.63 2.15,5.03 1.43,1.4 3.25,2.1 5.46,2.1 2.48,0 4.85,-0.81 7.13,-2.43 1.68,-1.25 2.76,-2.76 3.21,-4.6 0.34,-1.16 0.54,-3.38 0.59,-6.63l0 -2.73z"/>
        <path id="13" class="fil4" d="M1486.81 415.11l15.7 1.85c0.27,1.83 0.89,3.1 1.85,3.81 1.3,0.97 3.32,1.47 6.06,1.47 3.57,0 6.28,-0.55 8.1,-1.67 1.16,-0.71 2.08,-1.85 2.73,-3.41 0.38,-1.1 0.62,-3.18 0.68,-6.25l0 -7.61c-4.09,5.6 -9.31,8.4 -15.62,8.4 -6.89,0 -12.39,-2.94 -16.49,-8.78 -3.18,-4.7 -4.78,-10.48 -4.78,-17.37 0,-8.66 2.1,-15.29 6.3,-19.92 4.19,-4.61 9.39,-6.93 15.57,-6.93 6.36,0 11.64,2.8 15.81,8.39l0 -7.21 12.87 0 0 46.55c0,6.11 -0.5,10.66 -1.52,13.66 -1,3 -2.41,5.35 -4.23,7.08 -1.83,1.71 -4.24,3.06 -7.27,4.04 -3.04,0.97 -6.88,1.47 -11.56,1.47 -8.8,0 -15.03,-1.5 -18.69,-4.5 -3.68,-2.99 -5.51,-6.79 -5.51,-11.41 0,-0.46 0,-1.01 0,-1.66zm12.29 -30.35c0,5.53 1.06,9.55 3.21,12.05 2.15,2.51 4.75,3.76 7.81,3.76 3.32,0 6.15,-1.3 8.5,-3.9 2.33,-2.61 3.51,-6.48 3.51,-11.62 0,-5.4 -1.11,-9.38 -3.33,-11.94 -2.2,-2.58 -5,-3.87 -8.38,-3.87 -3.26,0 -5.96,1.27 -8.11,3.82 -2.15,2.53 -3.21,6.43 -3.21,11.7z"/>
        <path id="14" class="fil4" d="M1547.88 359.88l12.69 0 0 7.02c4.55,-5.53 9.93,-8.27 16.11,-8.2 3.31,0 6.19,0.68 8.62,2.05 2.45,1.37 4.45,3.41 6.01,6.15 2.27,-2.79 4.74,-4.85 7.37,-6.2 2.63,-1.33 5.44,-2 8.44,-2 3.76,0 6.99,0.77 9.66,2.3 2.66,1.53 4.61,3.8 5.84,6.78 0.92,2.21 1.4,5.79 1.47,10.74l0 33.18 -13.76 -12.6 0 -16.97c0,-5.28 -0.45,-8.62 -1.36,-10.05 -1.23,-1.95 -3.18,-2.9 -5.85,-2.84 -1.96,0 -3.76,0.59 -5.43,1.77 -1.64,1.16 -2.86,2.86 -3.64,5.11 -0.79,2.25 -1.19,5.81 -1.19,10.69l0 24.89 -13.65 -12.6 0 -15.8c0,-5.15 -0.24,-8.39 -0.69,-9.76 -0.45,-1.5 -1.19,-2.58 -2.24,-3.26 -1.04,-0.69 -2.47,-1.04 -4.3,-1.04 -2.13,0 -4.05,0.57 -5.7,1.72 -1.66,1.13 -2.84,2.76 -3.56,4.88 -0.72,2.11 -1.08,5.66 -1.08,10.67l0 25.19 -13.76 -12.6 0 -39.22z"/>
        <path id="15" class="fil4" d="M1667.61 395.21l13.67 2.33c-1.76,5.01 -4.53,8.83 -8.29,11.42 -3.78,2.6 -8.53,3.9 -14.26,3.9 -8.98,0 -15.64,-2.95 -20,-8.88 -3.38,-4.74 -5.08,-10.67 -5.08,-17.75 0,-8.59 2.25,-15.32 6.74,-20.2 4.48,-4.88 10.15,-7.33 16.98,-7.33 7.74,0 13.82,2.55 18.25,7.61 4.3,4.88 6.41,12.69 6.34,23.43l-34.35 0c0.06,4.03 1.18,7.18 3.33,9.46 2.13,2.29 4.81,3.42 7.99,3.42 2.15,0 3.95,-0.58 5.41,-1.75 1.47,-1.18 2.55,-3.06 3.27,-5.66zm0.78 -13.86c-0.07,-3.98 -1.07,-6.98 -3.01,-9.03 -1.97,-2.04 -4.33,-3.08 -7.13,-3.08 -3,0 -5.46,1.09 -7.41,3.23 -1.97,2.14 -2.93,5.1 -2.93,8.88l20.48 0z"/>
        <path id="16" class="fil4" d="M1740.12 411.7l-13.66 0 0 -26.45c0,-5.6 -0.3,-9.23 -0.88,-10.88 -0.58,-1.66 -1.55,-2.93 -2.88,-3.81 -1.33,-0.88 -2.91,-1.32 -4.73,-1.32 -2.41,0 -4.56,0.65 -6.44,1.95 -1.89,1.3 -3.17,3.02 -3.85,5.13 -0.68,2.12 -1.03,6.06 -1.03,11.86l0 23.52 -13.66 0 0 -51.82 12.69 0 0 7.61c4.55,-5.86 10.24,-8.79 17.07,-8.79 3,0 5.76,0.55 8.29,1.62 2.54,1.06 4.45,2.44 5.72,4.14 1.26,1.7 2.15,3.63 2.63,5.82 0.48,2.18 0.73,5.24 0.73,9.21l0 32.21z"/>
        <path id="17" class="fil4" d="M1777.58 359.88l0 10.93 -9.36 0 0 20.88c0,4.23 0.08,6.68 0.25,7.36 0.15,0.69 0.56,1.27 1.21,1.77 0.65,0.48 1.43,0.73 2.33,0.73 1.25,0 3.07,-0.46 5.48,-1.36l1.27 10.62c-3.2,1.44 -6.83,2.12 -10.93,2.05 -2.48,0 -4.69,-0.4 -6.64,-1.21 -1.95,-0.82 -3.4,-1.89 -4.35,-3.22 -0.93,-1.33 -1.56,-3.11 -1.9,-5.33 -0.26,-1.61 -0.41,-4.85 -0.48,-9.66l0 -22.63 -6.34 0 0 -10.93 6.34 0 0 -10.34 13.76 -8.01 0 18.35 9.36 0z"/>
 </g>
</svg>
